<svg xmlns="http://www.w3.org/2000/svg" width="33" height="33" viewBox="0 0 33 33">
  <defs>
    <style>
      .cls-1 {
        fill: #fff;
        fill-rule: evenodd;
      }
    </style>
  </defs>
  <path class="cls-1" d="M798.5,1476a16.5,16.5,0,1,1,16.5-16.5A16.5,16.5,0,0,1,798.5,1476Zm0-29.91a13.41,13.41,0,1,0,13.406,13.41A13.412,13.412,0,0,0,798.5,1446.09Zm5.79,15.99-4.64,5.16,0-.01a1.523,1.523,0,0,1-2.292,0l0,0.01-4.64-5.16h0a1.543,1.543,0,0,1,1.145-2.58,1.521,1.521,0,0,1,1.146.52l0-.01,1.944,2.16v-9.37a1.547,1.547,0,1,1,3.094,0v9.37l1.944-2.16,0,0.01a1.521,1.521,0,0,1,1.146-.52,1.543,1.543,0,0,1,1.145,2.58h0Z" transform="translate(-782 -1443)"/>
</svg>
