<svg xmlns="http://www.w3.org/2000/svg" width="33" height="33" viewBox="0 0 33 33">
  <defs>
    <style>
      .cls-1 {
        fill: #96a5b4;
        fill-rule: evenodd;
      }
    </style>
  </defs>
  <path class="cls-1" d="M799.5,936A16.5,16.5,0,1,1,816,919.5,16.5,16.5,0,0,1,799.5,936Zm0-29.906A13.406,13.406,0,1,0,812.906,919.5,13.406,13.406,0,0,0,799.5,906.094Zm5.79,15.988-4.64,5.156,0,0a1.531,1.531,0,0,1-2.292,0l0,0-4.64-5.156,0,0a1.541,1.541,0,1,1,2.291-2.062l0,0,1.944,2.16V912.8a1.547,1.547,0,0,1,3.094,0v9.375l1.944-2.16,0,0a1.541,1.541,0,1,1,2.291,2.062Z" transform="translate(-783 -903)"/>
</svg>
